HIERARCHY
ROOT hip
{
  OFFSET 0 0 0
  CHANNELS 6 Xposition Yposition Zposition Zrotation Yrotation Xrotation
  JOINT abdomen
  {
    OFFSET 0 20.6881 -0.73152
    CHANNELS 3 Zrotation Xrotation Yrotation
    JOINT chest
    {
      OFFSET 0 11.7043 -0.48768
      CHANNELS 3 Zrotation Xrotation Yrotation
      JOINT neck
      {
        OFFSET 0 22.1894 -2.19456
        CHANNELS 3 Zrotation Xrotation Yrotation
        JOINT head
        {
          OFFSET -0.24384 7.07133 1.2192
          CHANNELS 3 Zrotation Xrotation Yrotation
          JOINT leftEye
          {
            OFFSET 4.14528 8.04674 8.04672
            CHANNELS 3 Zrotation Xrotation Yrotation
            End Site
            {
              OFFSET 1 0 0
            }
          }
          JOINT rightEye
          {
            OFFSET -3.6576 8.04674 8.04672
            CHANNELS 3 Zrotation Xrotation Yrotation
            End Site
            {
              OFFSET 1 0 0
            }
          }
        }
      }
      JOINT rCollar
      {
        OFFSET -2.68224 19.2634 -4.8768
        CHANNELS 3 Zrotation Xrotation Yrotation
        JOINT rShldr
        {
          OFFSET -8.77824 -1.95073 1.46304
          CHANNELS 3 Zrotation Xrotation Yrotation
          JOINT rForeArm
          {
            OFFSET -28.1742 -1.7115 0.48768
            CHANNELS 3 Zrotation Xrotation Yrotation
            JOINT rHand
            {
              OFFSET -22.5879 0.773209 7.07136
              CHANNELS 3 Zrotation Xrotation Yrotation
              JOINT rThumb1
              {
                OFFSET -1.2192 -0.487915 3.41376
                CHANNELS 3 Zrotation Xrotation Yrotation
                JOINT rThumb2
                {
                  OFFSET -3.37035 -0.52449 3.41376
                  CHANNELS 3 Zrotation Xrotation Yrotation
                  End Site
                  {
                    OFFSET -1.78271 -1.18214 1.43049
                  }
                }
              }
              JOINT rIndex1
              {
                OFFSET -7.75947 0.938293 5.60832
                CHANNELS 3 Zrotation Xrotation Yrotation
                JOINT rIndex2
                {
                  OFFSET -2.54057 -0.884171 1.56538
                  CHANNELS 3 Zrotation Xrotation Yrotation
                  End Site
                  {
                    OFFSET -1.62519 -0.234802 1.16502
                  }
                }
              }
              JOINT rMid1
              {
                OFFSET -8.24714 1.18213 3.41376
                CHANNELS 3 Zrotation Xrotation Yrotation
                JOINT rMid2
                {
                  OFFSET -3.10165 -0.590103 1.0647
                  CHANNELS 3 Zrotation Xrotation Yrotation
                  End Site
                  {
                    OFFSET -2.48547 -0.328903 0.83742
                  }
                }
              }
              JOINT rRing1
              {
                OFFSET -8.82822 0.546677 1.51678
                CHANNELS 3 Zrotation Xrotation Yrotation
                JOINT rRing2
                {
                  OFFSET -2.60934 -0.819778 -0.0198488
                  CHANNELS 3 Zrotation Xrotation Yrotation
                  End Site
                  {
                    OFFSET -2.33842 -0.294052 0.168128
                  }
                }
              }
              JOINT rPinky1
              {
                OFFSET -8.27202 -0.0477905 -0.4584
                CHANNELS 3 Zrotation Xrotation Yrotation
                JOINT rPinky2
                {
                  OFFSET -1.82734 -0.647385 -0.700984
                  CHANNELS 3 Zrotation Xrotation Yrotation
                  End Site
                  {
                    OFFSET -1.69225 -0.51767 -0.607171
                  }
                }
              }
            }
          }
        }
      }
      JOINT lCollar
      {
        OFFSET 2.68224 19.2634 -4.8768
        CHANNELS 3 Zrotation Xrotation Yrotation
        JOINT lShldr
        {
          OFFSET 8.77824 -1.95073 1.46304
          CHANNELS 3 Zrotation Xrotation Yrotation
          JOINT lForeArm
          {
            OFFSET 28.1742 -1.7115 0.48768
            CHANNELS 3 Zrotation Xrotation Yrotation
            JOINT lHand
            {
              OFFSET 22.5879 0.773209 7.07136
              CHANNELS 3 Zrotation Xrotation Yrotation
              JOINT lThumb1
              {
                OFFSET 1.2192 -0.487915 3.41376
                CHANNELS 3 Zrotation Xrotation Yrotation
                JOINT lThumb2
                {
                  OFFSET 3.37035 -0.52449 3.41376
                  CHANNELS 3 Zrotation Xrotation Yrotation
                  End Site
                  {
                    OFFSET 1.78271 -1.18214 1.43049
                  }
                }
              }
              JOINT lIndex1
              {
                OFFSET 7.75947 0.938293 5.60832
                CHANNELS 3 Zrotation Xrotation Yrotation
                JOINT lIndex2
                {
                  OFFSET 2.54057 -0.884171 1.56538
                  CHANNELS 3 Zrotation Xrotation Yrotation
                  End Site
                  {
                    OFFSET 1.62519 -0.234802 1.16502
                  }
                }
              }
              JOINT lMid1
              {
                OFFSET 8.24714 1.18213 3.41376
                CHANNELS 3 Zrotation Xrotation Yrotation
                JOINT lMid2
                {
                  OFFSET 3.10165 -0.590103 1.0647
                  CHANNELS 3 Zrotation Xrotation Yrotation
                  End Site
                  {
                    OFFSET 2.48547 -0.328903 0.83742
                  }
                }
              }
              JOINT lRing1
              {
                OFFSET 8.82822 0.546677 1.51678
                CHANNELS 3 Zrotation Xrotation Yrotation
                JOINT lRing2
                {
                  OFFSET 2.60934 -0.819778 -0.0198488
                  CHANNELS 3 Zrotation Xrotation Yrotation
                  End Site
                  {
                    OFFSET 2.33842 -0.294052 0.168128
                  }
                }
              }
              JOINT lPinky1
              {
                OFFSET 8.27202 -0.0477905 -0.4584
                CHANNELS 3 Zrotation Xrotation Yrotation
                JOINT lPinky2
                {
                  OFFSET 1.82734 -0.647385 -0.700984
                  CHANNELS 3 Zrotation Xrotation Yrotation
                  End Site
                  {
                    OFFSET 1.69225 -0.51767 -0.607171
                  }
                }
              }
            }
          }
        }
      }
    }
  }
  JOINT rButtock
  {
    OFFSET -8.77824 4.35084 1.2192
    CHANNELS 3 Zrotation Xrotation Yrotation
    JOINT rThigh
    {
      OFFSET 0 -1.70687 -2.19456
      CHANNELS 3 Zrotation Xrotation Yrotation
      JOINT rShin
      {
        OFFSET 0 -36.8199 0.73152
        CHANNELS 3 Zrotation Xrotation Yrotation
        JOINT rFoot
        {
          OFFSET 0.73152 -45.1104 -5.12064
          CHANNELS 3 Zrotation Xrotation Yrotation
          End Site
          {
            OFFSET -1.1221 -3.69964 12.103
          }
        }
      }
    }
  }
  JOINT lButtock
  {
    OFFSET 8.77824 4.35084 1.2192
    CHANNELS 3 Zrotation Xrotation Yrotation
    JOINT lThigh
    {
      OFFSET 0 -1.70687 -2.19456
      CHANNELS 3 Zrotation Xrotation Yrotation
      JOINT lShin
      {
        OFFSET 0 -36.8199 0.73152
        CHANNELS 3 Zrotation Xrotation Yrotation
        JOINT lFoot
        {
          OFFSET -0.73152 -45.1104 -5.12064
          CHANNELS 3 Zrotation Xrotation Yrotation
          End Site
          {
            OFFSET 1.1221 -3.69964 12.103
          }
        }
      }
    }
  }
}
MOTION
Frames:	7
Frame Time:	0.00833333
-19.2516 83.8741 -184.875 -183.636 32.0061 181.312 2.54984 4.18904 -0.00776468 3.61237 -8.40935 0.390295 -11.5412 21.6517 -16.6244 30.8462 -20.3675 -26.4598 -0.0 0.0 0.0 -0.0 0.0 0.0 -3.22917e-15 2.56223e-14 2.67494e-14 68.7936 50.7087 3.63021 -21.43 -14.9192 42.2927 -0.0180474 3.79452 0.534105 -4.69679e-10 9.93613e-10 -2.0937e-10 -8.12741e-10 1.71732e-09 -3.61188e-10 -4.69674e-10 9.93611e-10 -2.09394e-10 7.73091 5.47488 0.417314 -4.69679e-10 9.9361e-10 -2.09372e-10 2.90554 0.965183 0.102902 -4.69674e-10 9.93608e-10 -2.09367e-10 10.2786 0.731801 0.0259123 -4.69682e-10 9.93611e-10 -2.0936e-10 2.22167 -0.733487 -0.20892 -3.39108e-15 2.56142e-14 2.63522e-14 -105.343 30.6891 36.5878 14.5975 -7.4463 -26.765 -0.0039908 0.879088 -0.124616 7.68639e-10 5.52263e-10 1.09943e-09 1.31387e-09 9.55856e-10 1.90319e-09 7.68631e-10 5.52268e-10 1.09943e-09 -7.73091 5.47488 -0.417314 7.6864e-10 5.52268e-10 1.09942e-09 -2.90554 0.965183 -0.102902 7.68628e-10 5.52268e-10 1.09943e-09 -10.2786 0.731801 -0.0259123 7.68634e-10 5.52267e-10 1.09942e-09 -2.22167 -0.733487 0.20892 -2.03217e-16 0.0 -3.88251e-19 21.678 -5.79316 19.1391 0.132068 24.3846 0.918623 -4.70756 -11.2806 -18.6705 2.03217e-16 0.0 3.88251e-19 1.39446 -33.5116 -18.0223 0.289138 40.2852 -1.20008 8.61216 -14.1727 22.3132
-18.7449 84.0553 -185.707 -183.321 33.0022 181.739 2.70555 4.11329 0.0184707 3.52628 -8.52209 0.386552 -11.479 22.0446 -16.4956 30.7431 -20.8169 -26.1859 -0.0 0.0 0.0 -0.0 0.0 0.0 -3.93465e-14 -3.84588e-14 -7.15274e-13 68.1628 51.4388 4.2645 -21.6346 -15.2135 42.8301 -0.0197987 3.98316 0.560737 -6.77022e-10 3.22551e-09 1.62922e-09 -1.16477e-09 5.56357e-09 2.82664e-09 -6.77017e-10 3.22551e-09 1.62919e-09 7.73091 5.47488 0.417314 -6.77022e-10 3.22551e-09 1.62922e-09 2.90554 0.965183 0.102902 -6.77017e-10 3.22551e-09 1.62922e-09 10.2786 0.731801 0.0259123 -6.77026e-10 3.22551e-09 1.62923e-09 2.22167 -0.733487 -0.20892 -3.94959e-14 -3.84711e-14 -7.15575e-13 -104.888 30.4509 36.4429 14.5294 -7.38887 -26.6266 0.011124 3.18288 -0.451009 6.05782e-10 -3.32905e-09 -2.28993e-09 1.01405e-09 -5.76595e-09 -3.96067e-09 6.05774e-10 -3.32905e-09 -2.28992e-09 -7.73091 5.47488 -0.417314 6.05783e-10 -3.32905e-09 -2.28993e-09 -2.90554 0.965183 -0.102902 6.05774e-10 -3.32905e-09 -2.28992e-09 -10.2786 0.731801 -0.0259123 6.05783e-10 -3.32905e-09 -2.28993e-09 -2.22167 -0.733487 0.20892 -2.03217e-16 0.0 -3.88251e-19 21.3141 -4.68123 18.7976 0.122862 23.1736 0.932854 -4.46354 -11.2404 -17.9661 2.03217e-16 0.0 3.88251e-19 0.762161 -32.9754 -20.711 0.23637 37.2647 -1.14647 9.36201 -14.946 23.5207
-18.334 84.1586 -186.355 -183.187 33.7173 181.821 2.8498 4.00349 0.0388094 3.44142 -8.62584 0.382656 -11.4321 22.4047 -16.3722 30.6095 -21.1618 -25.9441 -0.0 0.0 0.0 -0.0 0.0 0.0 -7.26486e-14 -9.80178e-14 -1.4073e-12 67.5897 52.1199 4.85821 -21.8174 -15.4837 43.3053 -0.0226201 4.27685 0.602216 -8.13177e-10 5.1367e-09 3.31457e-09 -1.39431e-09 8.85672e-09 5.74844e-09 -8.13172e-10 5.1367e-09 3.31454e-09 7.73091 5.47488 0.417314 -8.13178e-10 5.1367e-09 3.31457e-09 2.90554 0.965183 0.102902 -8.13173e-10 5.1367e-09 3.31457e-09 10.2786 0.731801 0.0259123 -8.13181e-10 5.1367e-09 3.31458e-09 2.22167 -0.733487 -0.20892 -7.27768e-14 -9.80339e-14 -1.40751e-12 -104.161 30.0327 36.1697 14.4245 -7.30148 -26.4133 0.0507619 6.08783 -0.862533 2.9869e-10 -6.93569e-09 -5.51233e-09 4.68304e-10 -1.20113e-08 -9.53397e-09 2.98683e-10 -6.9357e-09 -5.51232e-09 -7.73091 5.47488 -0.417314 2.98689e-10 -6.9357e-09 -5.51233e-09 -2.90554 0.965183 -0.102902 2.98684e-10 -6.9357e-09 -5.51233e-09 -10.2786 0.731801 -0.0259123 2.98696e-10 -6.9357e-09 -5.51234e-09 -2.22167 -0.733487 0.20892 -2.03217e-16 0.0 -3.88251e-19 20.9745 -3.59832 18.4709 0.112028 22.0077 0.943936 -4.22295 -11.1573 -17.3305 2.03217e-16 0.0 3.88251e-19 0.144412 -32.4337 -23.6359 0.194356 34.4259 -1.1071 10.2055 -15.7123 24.8318
-17.8774 84.2545 -187.003 -182.963 34.456 182.034 2.9845 3.87352 0.12667 3.34027 -8.68243 0.396502 -11.4448 22.5523 -16.2882 30.4632 -21.1902 -25.8243 -0.0 0.0 0.0 -0.0 0.0 0.0 -8.26461e-14 -1.20852e-13 -1.67287e-12 67.0946 52.6693 5.41584 -22.0014 -15.7595 43.7934 -0.025605 4.56306 0.642669 -8.10341e-10 5.68537e-09 3.93772e-09 -1.38742e-09 9.802e-09 6.82857e-09 -8.10336e-10 5.68537e-09 3.9377e-09 7.73091 5.47488 0.417314 -8.10342e-10 5.68537e-09 3.93772e-09 2.90554 0.965183 0.102902 -8.10339e-10 5.68537e-09 3.93772e-09 10.2786 0.731801 0.0259123 -8.10345e-10 5.68537e-09 3.93773e-09 2.22167 -0.733487 -0.20892 -8.27481e-14 -1.2087e-13 -1.67302e-12 -103.177 29.5154 35.7309 14.3039 -7.20222 -26.1674 0.104093 9.16286 -1.29896 -1.50232e-10 -8.4238e-09 -6.97673e-09 -3.09672e-10 -1.45866e-08 -1.20626e-08 -1.50239e-10 -8.42381e-09 -6.97672e-09 -7.73091 5.47488 -0.417314 -1.50234e-10 -8.42381e-09 -6.97673e-09 -2.90554 0.965183 -0.102902 -1.50237e-10 -8.42381e-09 -6.97672e-09 -10.2786 0.731801 -0.0259123 -1.50223e-10 -8.42381e-09 -6.97673e-09 -2.22167 -0.733487 0.20892 -2.03217e-16 0.0 -3.88251e-19 20.68 -2.62475 18.205 0.103264 21.0297 0.953803 -3.99661 -10.9551 -16.8527 2.03217e-16 0.0 3.88251e-19 -0.472509 -31.9728 -26.8417 0.162381 31.9597 -1.08707 11.2132 -16.4864 26.3358
-17.4202 84.3298 -187.707 -182.993 35.2517 182.121 3.11069 3.7071 0.326307 3.21298 -8.66247 0.438947 -11.552 22.3694 -16.2666 30.2942 -20.7137 -25.9009 -0.0 0.0 0.0 -0.0 0.0 0.0 -5.10535e-14 -8.31444e-14 -1.2244e-12 66.7078 53.0344 5.93502 -22.2063 -16.0711 44.3462 -0.0288354 4.85853 0.68446 -5.48093e-10 3.80405e-09 2.74523e-09 -9.38782e-10 6.55973e-09 4.7605e-09 -5.48086e-10 3.80405e-09 2.7452e-09 7.73091 5.47488 0.417314 -5.48094e-10 3.80405e-09 2.74523e-09 2.90554 0.965183 0.102902 -5.48093e-10 3.80406e-09 2.74523e-09 10.2786 0.731801 0.0259123 -5.48096e-10 3.80406e-09 2.74524e-09 2.22167 -0.733487 -0.20892 -5.11162e-14 -8.31637e-14 -1.22456e-12 -101.839 28.8428 35.0709 14.154 -7.08053 -25.8621 0.175606 12.8206 -1.82295 -1.06772e-09 -6.36512e-09 -5.58855e-09 -1.87369e-09 -1.10156e-08 -9.64684e-09 -1.06773e-09 -6.36512e-09 -5.58854e-09 -7.73091 5.47488 -0.417314 -1.06773e-09 -6.36513e-09 -5.58856e-09 -2.90554 0.965183 -0.102902 -1.06773e-09 -6.36513e-09 -5.58855e-09 -10.2786 0.731801 -0.0259123 -1.06772e-09 -6.36512e-09 -5.58856e-09 -2.22167 -0.733487 0.20892 -2.03217e-16 0.0 -3.88251e-19 20.4582 -1.80455 18.0225 0.0966738 20.2776 0.961804 -3.78064 -10.5356 -16.6285 2.03217e-16 0.0 3.88251e-19 -1.15321 -31.5946 -30.6728 0.137935 29.9149 -1.08641 12.5188 -17.1756 28.3414
-16.9665 84.3529 -188.406 -183.048 36.1196 182.211 3.22847 3.50344 0.590259 3.07048 -8.59271 0.498402 -11.7216 21.9751 -16.2853 30.1008 -19.8912 -26.1117 -0.0 0.0 0.0 -0.0 0.0 0.0 6.9278e-15 -7.14639e-15 -3.25063e-13 66.4232 53.2708 6.40388 -22.4142 -16.3943 44.9137 -0.0330523 5.20769 0.733904 -9.67079e-11 3.11604e-10 3.92226e-10 -1.67489e-10 5.4082e-10 6.80032e-10 -9.67e-11 3.11604e-10 3.922e-10 7.73091 5.47488 0.417314 -9.67086e-11 3.11605e-10 3.92221e-10 2.90554 0.965183 0.102902 -9.67124e-11 3.11617e-10 3.92224e-10 10.2786 0.731801 0.0259123 -9.67104e-11 3.11607e-10 3.92232e-10 2.22167 -0.733487 -0.20892 6.91625e-15 -7.16565e-15 -3.25271e-13 -100.193 27.9854 34.2406 13.9687 -6.931 -25.4878 0.322627 17.1122 -2.46298 -2.34594e-09 -2.05523e-09 -2.4198e-09 -4.04523e-09 -3.54306e-09 -4.14407e-09 -2.34595e-09 -2.05523e-09 -2.41979e-09 -7.73091 5.47488 -0.417314 -2.34595e-09 -2.05523e-09 -2.4198e-09 -2.90554 0.965183 -0.102902 -2.34595e-09 -2.05523e-09 -2.41979e-09 -10.2786 0.731801 -0.0259123 -2.34594e-09 -2.05523e-09 -2.4198e-09 -2.22167 -0.733487 0.20892 -2.03217e-16 0.0 -3.88251e-19 20.2845 -1.08943 17.892 0.0902289 19.6752 0.967243 -3.5701 -9.96703 -16.5873 2.03217e-16 0.0 3.88251e-19 -1.90222 -31.1584 -34.9855 0.117899 28.1905 -1.09904 14.0669 -17.7725 30.7091
-16.482 84.3358 -189.046 -182.908 37.0259 182.488 3.33792 3.2997 0.854402 2.92665 -8.51919 0.559105 -11.8964 21.5454 -16.3096 29.9091 -19.0292 -26.3413 -0.0 0.0 0.0 -0.0 0.0 0.0 6.15562e-14 7.02423e-14 5.75466e-13 66.2069 53.4583 6.81286 -22.5939 -16.6778 45.4173 -0.0375556 5.53954 0.780968 3.25575e-10 -3.00432e-09 -1.91738e-09 5.5384e-10 -5.17364e-09 -3.32502e-09 3.25584e-10 -3.00433e-09 -1.9174e-09 7.73091 5.47488 0.417314 3.25575e-10 -3.00433e-09 -1.91739e-09 2.90554 0.965183 0.102902 3.25567e-10 -3.00431e-09 -1.91738e-09 10.2786 0.731801 0.0259123 3.25573e-10 -3.00432e-09 -1.91737e-09 2.22167 -0.733487 -0.20892 6.15907e-14 7.02247e-14 5.75202e-13 -98.4642 27.0673 33.3537 13.781 -6.78034 -25.1124 0.541072 21.0663 -3.09082 -3.3306e-09 2.26399e-09 8.70757e-10 -5.7121e-09 3.94313e-09 1.56459e-09 -3.33061e-09 2.26398e-09 8.70758e-10 -7.73091 5.47488 -0.417314 -3.33061e-09 2.26398e-09 8.70759e-10 -2.90554 0.965183 -0.102902 -3.33062e-09 2.26399e-09 8.70764e-10 -10.2786 0.731801 -0.0259123 -3.33061e-09 2.26398e-09 8.70755e-10 -2.22167 -0.733487 0.20892 -2.03217e-16 0.0 -3.88251e-19 20.0999 -0.421618 17.7783 0.0845859 19.1942 0.971826 -3.37661 -9.42205 -16.5687 2.03217e-16 0.0 3.88251e-19 -2.6385 -30.6081 -39.1041 0.100676 26.7524 -1.12084 15.6409 -18.4413 32.8608
